<svg height='100px' width='100px'  fill="#808082" xmlns="http://www.w3.org/2000/svg" xmlns:xlink="http://www.w3.org/1999/xlink" version="1.1" x="0px" y="0px" viewBox="0 0 100 100" enable-background="new 0 0 100 100" xml:space="preserve"><path d="M77.2,70.5l-6.9-14.9l0.1-0.8l3.6-0.5l-0.4-3.6l3.4-1.1l-1-3.5l3.2-1.7l-1.6-3.2l2.8-2.2l-2.1-2.9l2.4-2.7l-2.6-2.5l1.9-3.1  l-3-2l1.3-3.4l-3.3-1.4l0.7-3.5L72,17l0-3.6l-3.6-0.1l-0.6-3.6l-3.6,0.5l-1.2-3.4L59.6,8l-1.8-3.1l-3.2,1.7l-2.3-2.7l-2.8,2.3  l-2.8-2.3l-2.3,2.7l-3.2-1.7L39.4,8L36,6.8l-1.2,3.4l-3.6-0.5l-0.6,3.6L27,13.4l0,3.6l-3.5,0.8l0.7,3.5l-3.3,1.4l1.3,3.4l-3,2  l1.9,3.1l-2.6,2.5l2.4,2.7l-2.1,2.9l2.8,2.2l-1.6,3.2l3.2,1.7l-1,3.5l3.4,1.1l-0.4,3.6l3.5,0.4L22,73l-4.8,13.1l17.9-10.1l7.2,19.3  l4.8-13.1l2.7-7.3l3.2,7l5.9,12.7l5.5-19.8l18.7,8.6L77.2,70.5z M24.5,48.4l0.9-3.2l-2.9-1.5l1.5-2.9l-2.6-2l2-2.6l-2.2-2.5l2.4-2.2  l-1.7-2.8l2.8-1.8l-1.2-3.1l3-1.3l-0.6-3.2l3.2-0.7l0-3.3l3.3-0.1l0.6-3.2l3.2,0.5l1.1-3.1l3.1,1L42,7.6l2.9,1.6L47,6.6l2.5,2.1  l2.5-2.1l2.1,2.5l2.9-1.6l1.7,2.8l3.1-1l1.1,3.1l3.2-0.5l0.6,3.2l3.3,0.1l0,3.3l3.2,0.7l-0.6,3.2l3,1.3l-1.2,3.1l2.8,1.8l-1.7,2.8  l2.4,2.2l-2.2,2.4l2,2.6l-2.6,2l1.5,2.9l-2.9,1.5l0.9,3.2l-3.1,1l0.3,3.3L68.5,53l-0.3,3.3l-3.3-0.2l-0.8,3.2l-3.2-0.8l-1.4,3  l-3-1.3l-1.9,2.7L51.9,61l-2.3,2.3L47.2,61l-2.7,1.8l-1.9-2.7l-3,1.3l-1.4-3L35,59.3l-0.8-3.2l-3.3,0.2L30.6,53l-3.3-0.4l0.3-3.3  L24.5,48.4z M45.3,81.4l-2.9,8L37,75.3l-0.8-2.2l-2,1.2l-13.2,7.5l2.9-8l5.6-15.3l3.2-0.2l0.9,3.5l3.5-0.8l1.5,3.3l3.3-1.4l2.1,2.9  l3-2l2.6,2.5l2-2L45.3,81.4z M49.7,57.8c-12.3,0-22.4-10-22.4-22.4c0-12.3,10-22.4,22.4-22.4c12.3,0,22.4,10,22.4,22.4  C72.1,47.8,62.1,57.8,49.7,57.8z M49.7,17.7c-9.8,0-17.7,8-17.7,17.7c0,9.8,8,17.7,17.7,17.7c9.8,0,17.7-8,17.7-17.7  C67.5,25.7,59.5,17.7,49.7,17.7z M51.1,23.1l2.3,6.5c0.2,0.5,0.6,0.8,1.1,0.8l6.9,0.1c1.1,0,1.6,1.4,0.7,2.1l-5.5,4.2  c-0.4,0.3-0.5,0.8-0.4,1.3l2,6.6c0.3,1.1-0.9,1.9-1.8,1.3l-5.7-4c-0.4-0.3-0.9-0.3-1.3,0l-5.7,4c-0.9,0.6-2.1-0.2-1.8-1.3l2-6.6  c0.1-0.5,0-1-0.4-1.3L38,32.7c-0.9-0.7-0.4-2.1,0.7-2.1l6.9-0.1c0.5,0,0.9-0.3,1.1-0.8l2.3-6.5C49.3,22.1,50.7,22.1,51.1,23.1z"></path></svg>