<svg height='100px' width='100px'  fill="#808082" xmlns:dc="http://purl.org/dc/elements/1.1/" xmlns:cc="http://creativecommons.org/ns#" xmlns:rdf="http://www.w3.org/1999/02/22-rdf-syntax-ns#" xmlns:svg="http://www.w3.org/2000/svg" xmlns="http://www.w3.org/2000/svg" xmlns:sodipodi="http://sodipodi.sourceforge.net/DTD/sodipodi-0.dtd" xmlns:inkscape="http://www.inkscape.org/namespaces/inkscape" viewBox="0 0 26.4583 26.4583" version="1.1" x="0px" y="0px"><g transform="translate(0,-270.542)"><path style="color:#000000;font-style:normal;font-variant:normal;font-weight:normal;font-stretch:normal;font-size:medium;line-height:normal;font-family:sans-serif;font-variant-ligatures:normal;font-variant-position:normal;font-variant-caps:normal;font-variant-numeric:normal;font-variant-alternates:normal;font-feature-settings:normal;text-indent:0;text-align:start;text-decoration:none;text-decoration-line:none;text-decoration-style:solid;text-decoration-color:#000000;letter-spacing:normal;word-spacing:normal;text-transform:none;writing-mode:lr-tb;direction:ltr;text-orientation:mixed;dominant-baseline:auto;baseline-shift:baseline;text-anchor:start;white-space:normal;shape-padding:0;clip-rule:nonzero;display:inline;overflow:visible;visibility:visible;opacity:1;isolation:auto;mix-blend-mode:normal;color-interpolation:sRGB;color-interpolation-filters:linearRGB;solid-color:#000000;solid-opacity:1;vector-effect:none;fill:#808082;fill-opacity:1;fill-rule:nonzero;stroke:none;stroke-width:0.79375;stroke-linecap:butt;stroke-linejoin:miter;stroke-miterlimit:4;stroke-dasharray:none;stroke-dashoffset:0;stroke-opacity:1;color-rendering:auto;image-rendering:auto;shape-rendering:auto;text-rendering:auto;enable-background:accumulate" d="m 12.5714,275.522 v 3.935 0 2.373 c -0.2041,-0.332 -0.4372,-0.651 -0.7225,-0.937 -0.7179,-0.719 -1.7356,-1.218 -2.99258,-1.217 v 1.31 c 0.92916,0 1.55068,0.322 2.06248,0.832 0.5119,0.513 0.8876,1.242 1.1402,1.999 0.505,1.515 0.5124,3.073 0.5124,3.073 v 4.809 h 1.3144 v -4.809 c 0,0 0,-1.558 0.5099,-3.073 0.2527,-0.757 0.6307,-1.486 1.1426,-1.999 0.5117,-0.51 1.1333,-0.832 2.0626,-0.832 v -1.31 c -1.2572,0 -2.2738,0.498 -2.9918,1.217 -0.2863,0.287 -0.5201,0.607 -0.7259,0.941 v -3.689 0 -2.623 z"></path><path style="color:#000000;font-style:normal;font-variant:normal;font-weight:normal;font-stretch:normal;font-size:medium;line-height:normal;font-family:sans-serif;font-variant-ligatures:normal;font-variant-position:normal;font-variant-caps:normal;font-variant-numeric:normal;font-variant-alternates:normal;font-feature-settings:normal;text-indent:0;text-align:start;text-decoration:none;text-decoration-line:none;text-decoration-style:solid;text-decoration-color:#000000;letter-spacing:normal;word-spacing:normal;text-transform:none;writing-mode:lr-tb;direction:ltr;text-orientation:mixed;dominant-baseline:auto;baseline-shift:baseline;text-anchor:start;white-space:normal;shape-padding:0;clip-rule:nonzero;display:inline;overflow:visible;visibility:visible;opacity:1;isolation:auto;mix-blend-mode:normal;color-interpolation:sRGB;color-interpolation-filters:linearRGB;solid-color:#000000;solid-opacity:1;vector-effect:none;fill:#808082;fill-opacity:1;fill-rule:evenodd;stroke:none;stroke-width:0.181902;stroke-linecap:round;stroke-linejoin:round;stroke-miterlimit:4;stroke-dasharray:none;stroke-dashoffset:0;stroke-opacity:1;paint-order:normal;color-rendering:auto;image-rendering:auto;shape-rendering:auto;text-rendering:auto;enable-background:accumulate" d="m 9.73254,278.236 h -10e-4 a 0.150328,0.150328 0 0 0 -0.0512,0 l -5.25825,1.933 a 0.150328,0.150328 0 0 0 0,0.285 l 5.25825,1.93 a 0.150328,0.150328 0 0 0 0.17089,-0.23 c -0.79775,-1.112 -0.80056,-2.596 0,-3.685 a 0.150328,0.150328 0 0 0 -0.119,-0.243 z"></path><path style="color:#000000;font-style:normal;font-variant:normal;font-weight:normal;font-stretch:normal;font-size:medium;line-height:normal;font-family:sans-serif;font-variant-ligatures:normal;font-variant-position:normal;font-variant-caps:normal;font-variant-numeric:normal;font-variant-alternates:normal;font-feature-settings:normal;text-indent:0;text-align:start;text-decoration:none;text-decoration-line:none;text-decoration-style:solid;text-decoration-color:#000000;letter-spacing:normal;word-spacing:normal;text-transform:none;writing-mode:lr-tb;direction:ltr;text-orientation:mixed;dominant-baseline:auto;baseline-shift:baseline;text-anchor:start;white-space:normal;shape-padding:0;clip-rule:nonzero;display:inline;overflow:visible;visibility:visible;opacity:1;isolation:auto;mix-blend-mode:normal;color-interpolation:sRGB;color-interpolation-filters:linearRGB;solid-color:#000000;solid-opacity:1;vector-effect:none;fill:#808082;fill-opacity:1;fill-rule:evenodd;stroke:none;stroke-width:0.181902;stroke-linecap:round;stroke-linejoin:round;stroke-miterlimit:4;stroke-dasharray:none;stroke-dashoffset:0;stroke-opacity:1;color-rendering:auto;image-rendering:auto;shape-rendering:auto;text-rendering:auto;enable-background:accumulate" d="m 16.7194,278.246 a 0.150328,0.150328 0 0 0 -0.1124,0.243 c 0.8009,1.089 0.7946,2.573 0,3.685 a 0.150328,0.150328 0 0 0 0.1742,0.23 l 5.255,-1.93 a 0.150328,0.150328 0 0 0 0,-0.285 l -5.255,-1.933 a 0.150328,0.150328 0 0 0 -0.058,0 z"></path><path style="color:#000000;font-style:normal;font-variant:normal;font-weight:normal;font-stretch:normal;font-size:medium;line-height:normal;font-family:sans-serif;font-variant-ligatures:normal;font-variant-position:normal;font-variant-caps:normal;font-variant-numeric:normal;font-variant-alternates:normal;font-feature-settings:normal;text-indent:0;text-align:start;text-decoration:none;text-decoration-line:none;text-decoration-style:solid;text-decoration-color:#000000;letter-spacing:normal;word-spacing:normal;text-transform:none;writing-mode:lr-tb;direction:ltr;text-orientation:mixed;dominant-baseline:auto;baseline-shift:baseline;text-anchor:start;white-space:normal;shape-padding:0;clip-rule:nonzero;display:inline;overflow:visible;visibility:visible;opacity:1;isolation:auto;mix-blend-mode:normal;color-interpolation:sRGB;color-interpolation-filters:linearRGB;solid-color:#000000;solid-opacity:1;vector-effect:none;fill:#808082;fill-opacity:1;fill-rule:evenodd;stroke:none;stroke-width:0.181902;stroke-linecap:round;stroke-linejoin:round;stroke-miterlimit:4;stroke-dasharray:none;stroke-dashoffset:0;stroke-opacity:1;color-rendering:auto;image-rendering:auto;shape-rendering:auto;text-rendering:auto;enable-background:accumulate" d="m 13.2142,271.865 a 0.150328,0.150328 0 0 0 -0.1289,0.1 l -1.931,5.255 a 0.150328,0.150328 0 0 0 0.2296,0.176 c 1.1121,-0.799 2.6003,-0.805 3.6894,0 a 0.150328,0.150328 0 0 0 0.2291,-0.172 l -1.9336,-5.256 a 0.150328,0.150328 0 0 0 -0.1554,-0.1 z"></path><circle style="opacity:1;fill:#808082;fill-opacity:1;fill-rule:nonzero;stroke:none;stroke-width:0.793749;stroke-linecap:round;stroke-linejoin:miter;stroke-miterlimit:4;stroke-dasharray:none;stroke-dashoffset:0;stroke-opacity:1;paint-order:normal" cx="13.2286" cy="293.032" r="2.64583"></circle></g></svg>