<svg height='100px' width='100px'  fill="#808082" xmlns="http://www.w3.org/2000/svg" xmlns:xlink="http://www.w3.org/1999/xlink" version="1.1" x="0px" y="0px" viewBox="0 0 100 100" enable-background="new 0 0 100 100" xml:space="preserve"><g><path d="M43.132,40.465c0-3.793,3.075-6.868,6.868-6.868s6.868,3.075,6.868,6.868c0,4.749-3.075,8.298-6.868,8.298   S43.132,45.244,43.132,40.465z"></path></g><g><path d="M66.093,59.634c-0.444,0.882-0.949,1.734-1.538,2.537c-12.877,0-16.128,0-29.098,0c-0.593-0.811-1.111-1.659-1.551-2.536   c1.437-4.452,4.879-7.819,9.342-9.503c0.384-0.145,0.82,0.022,1.025,0.377c1.23,2.131,2.749,3.728,5.561,3.728h0.329   c2.906,0,4.379-1.681,5.561-3.728c0.205-0.356,0.641-0.522,1.025-0.377C61.214,51.816,64.656,55.183,66.093,59.634z"></path></g><g><path d="M72.301,29.719c1.236-1.817,3.319-3.01,5.682-3.01c3.793,0,6.868,3.075,6.868,6.868c0,4.053-2.243,7.224-5.257,8.068   C78.144,37.289,75.749,33.239,72.301,29.719z"></path></g><g><path d="M94.48,54.235c0.113,0.537-0.278,1.048-0.827,1.048c-7.892,0-7.287,0-12.68,0c0.342-2.852,0.297-5.744-0.147-8.589   c2.965-1.514,2.514-3.975,3.908-3.45C89.684,45.111,93.385,49.044,94.48,54.235z"></path></g><g><path d="M15.149,33.577c0-3.793,3.075-6.868,6.868-6.868c2.36,0,4.441,1.191,5.677,3.004c-3.351,3.416-5.828,7.483-7.308,11.927   C17.382,40.793,15.149,37.646,15.149,33.577z"></path></g><g><path d="M19.003,55.283c-5.312,0-4.793,0-12.657,0c-0.549,0-0.94-0.511-0.827-1.048c1.095-5.191,4.797-9.124,9.746-10.991   c1.371-0.517,0.966,1.944,3.902,3.447C18.735,49.467,18.645,52.255,19.003,55.283z"></path></g><path d="M86.657,84.558L71.508,68.335c8.134-10.397,7.725-25.453-1.568-35.405c-10.283-11.012-27.547-11.604-38.559-1.32  c-11.012,10.283-11.604,27.547-1.32,38.559c9.293,9.952,24.286,11.391,35.215,3.987l15.149,16.223  c1.607,1.721,4.306,1.814,6.027,0.206C88.172,88.978,88.264,86.279,86.657,84.558z M33.952,66.535  c-8.276-8.863-7.8-22.757,1.063-31.034c8.863-8.276,22.757-7.801,31.034,1.063c8.276,8.863,7.8,22.757-1.063,31.034  C56.122,75.874,42.228,75.398,33.952,66.535z"></path></svg>