<?xml version="1.0" encoding="utf-8"?>
<!-- Generator: Adobe Illustrator 19.2.1, SVG Export Plug-In . SVG Version: 6.00 Build 0)  -->
<svg version="1.1" id="Layer_1" xmlns="http://www.w3.org/2000/svg" xmlns:xlink="http://www.w3.org/1999/xlink" x="0px" y="0px"
	 viewBox="0 0 789.6 141.7" style="enable-background:new 0 0 789.6 141.7;" xml:space="preserve">
<style type="text/css">
	.st0{fill:#EE7659;}
	.st1{fill:#808081;}
</style>
<g>
	<circle class="st0" cx="43.4" cy="43.4" r="16.4"/>
	<path class="st0" d="M53,99.5V85.6C72.3,81.3,86.8,64,86.8,43.4H67.5c0,13.3-10.8,24.1-24.1,24.1c-13.3,0-24.1-10.8-24.1-24.1H0
		C0,64,14.4,81.3,33.7,85.6v13.8C14.4,103.8,0,121.1,0,141.7h19.3c0-13.3,10.8-24.1,24.1-24.1c13.3,0,24.1,10.8,24.1,24.1h19.3
		C86.8,121.1,72.3,103.8,53,99.5z"/>
</g>
<path class="st0" d="M52.4,0.9l-9,18.4l-9-18.4C34.3,0.9,42.5-1.2,52.4,0.9z"/>
<path class="st0" d="M29.9,2.2l1.4,20.4l-17-11.4C14.2,11.2,20.3,5.3,29.9,2.2z"/>
<path class="st0" d="M11.1,14.6l11.4,17L2.1,30.2C2.1,30.2,4.3,22.1,11.1,14.6z"/>
<g>
	<path class="st0" d="M56.9,2.2l-1.4,20.4l17-11.4C72.5,11.2,66.5,5.3,56.9,2.2z"/>
	<path class="st0" d="M75.6,14.6l-11.4,17l20.4-1.4C84.7,30.2,82.4,22.1,75.6,14.6z"/>
</g>
<path class="st0" d="M129.1,60.9h7.3v8.9c3.6-7.1,11.4-10.5,17.8-10.5c5.9,0,11.4,1.9,15.4,6.4c1.5,1.5,3.4,5.2,3.7,5.9
	c0.8-1.6,2-3.8,4.1-6c3.7-3.9,9.2-6.3,15.5-6.3c5.8,0,11.3,1.7,15.2,5.7c4.9,4.9,6.4,11,6.4,20.9v31.3h-7.7v-31c0-6-0.9-11.3-4.2-15
	c-2.3-2.9-5.9-4.7-11.2-4.7c-4.9,0-9.7,2-12.4,5.9c-2.8,4-3.4,7.1-3.4,13.5v31.3h-7.7V86c0.2-6.3-0.7-9.9-2.9-13.4
	c-2.6-3.7-6.6-5.9-12.4-6c-5.2-0.2-9.6,2.4-11.9,5.8c-2.4,3.2-3.8,7.5-3.8,13.5v31.4h-7.7V60.9z"/>
<path class="st0" d="M280.1,117.3h-7.7v-11.6c-4.4,8.5-13,13.2-23,13.2c-18.3,0-29.2-14.2-29.2-29.7c0-16.5,12-29.7,29.2-29.7
	c12,0,20.3,7,23,13.4V60.9h7.7V117.3z M227.8,89.2c0.1,10.2,7.1,22.4,22.6,22.4c9.9,0,17.3-5.8,20.3-13.7c1.3-2.7,1.9-5.9,1.9-8.9
	c0.1-3.1-0.5-6.3-1.8-9c-3.1-7.7-10.7-13.5-20.6-13.5c-13,0-22.4,10.1-22.4,22.6V89.2z"/>
<path class="st0" d="M288.5,40.3h7.7v44.3l25.3-23.1h9.5L304,86.2l28.4,31.6h-9.1l-27-29.9v29.9h-7.7V40.3z"/>
<path class="st0" d="M337.1,91.3c0.4,14.1,12.5,20.9,22,20.8c8.7,0,15.7-4.3,19.4-11.6h8.1c-2.6,6.1-6.6,10.7-11.4,13.7
	c-4.7,3-10.3,4.6-16,4.6c-19.6,0-29.7-15.6-29.7-29.6c0-16.5,12.8-29.8,29.6-29.8c8,0,15.3,2.8,20.6,8c6.5,6.3,9.6,15,8.8,24H337.1z
	 M380.8,85.1c-0.5-9.8-10.1-19.5-21.7-19.2c-12.1,0-21.2,8.9-21.9,19.2H380.8z"/>
<path class="st1" d="M772.4,40.8h-2.3v-1.9h6.7v1.9h-2.3v8.7h-2.1V40.8z"/>
<path class="st1" d="M778.4,49.5V38.9h2.9l2.7,7.6l2.7-7.6h2.9v10.6h-2l0.1-8.5l-3,8.5h-1.4l-3-8.5l0.1,8.5H778.4z"/>
<path class="st1" d="M417.1,134.2h-17.9l8.9-21.6L387.2,59h18l11.3,32.7h0.2L427.4,59h17.9L417.1,134.2z"/>
<path class="st1" d="M474,117.7c-17.3,0-30.4-12.7-30.4-30c0-17.3,13.1-30,30.4-30c17.3,0,30.4,12.7,30.4,30
	C504.4,105,491.3,117.7,474,117.7z M474,73.5c-7.8,0-13.5,6.6-13.5,14.2c0,7.6,5.7,14.2,13.5,14.2c7.8,0,13.5-6.6,13.5-14.2
	C487.5,80.1,481.9,73.5,474,73.5z"/>
<path class="st1" d="M545.5,116v-6h-0.2c-2.9,6.1-8.3,7.8-14.6,7.8c-6.2,0-12.5-2.1-16.6-7.1c-4.6-5.7-5.1-10.4-5.1-17.4V59.6h16.9
	v31.2c0,6.4,1.4,11.3,9,11.3c7,0,9.7-5,9.7-11.5v-31h16.9V116H545.5z"/>
<path class="st1" d="M585.6,85.2v31h-16.9V59.8h15.9v6h0.2c2.9-5.8,7.6-7.9,14.1-7.9v17C591.5,75.1,585.6,76.5,585.6,85.2z"/>
<path class="st1" d="M625.1,117.6c-11.8,0-21.6-6.3-23-18.7h16.8c0.5,3.5,3,5.2,6.4,5.2c2.5,0,5.9-1.4,5.9-4.4
	c0-4.1-4.6-5.3-7.6-6.5c-2.4-0.8-4.9-1.6-7.3-2.5c-6.7-2.4-13.4-6.8-13.4-14.7c0-11.8,11-18.6,21.8-18.6c11.3,0,20.5,5.8,21.6,17.8
	h-16.6c-0.1-3.2-2.3-4.3-5.3-4.3c-2.2,0-4.8,1.2-4.8,3.8c0,8.8,28.4,3.9,28.4,23.8C648.1,111.1,636.6,117.6,625.1,117.6z"/>
<path class="st1" d="M710.2,92.6h-42.3c1,6.7,6.6,10.7,13.2,10.7c4.6,0,7.5-1.8,10.3-5.3h17.3c-4.9,11.3-14.8,19.5-27.5,19.5
	c-16.5,0-29.9-13.4-29.9-29.9c0-16.4,13-30.3,29.6-30.3c17.3,0,29.8,13.8,29.8,30.8C710.6,89.7,710.5,91.1,710.2,92.6z M680.9,71.6
	c-6.1,0-11.5,3.6-12.8,9.7h25.6C692.4,75.1,687,71.6,680.9,71.6z"/>
<path class="st1" d="M715.3,115.8V40.6h16.9v75.2H715.3z"/>
<path class="st1" d="M760.3,71.9v43.6h-16.9V71.9h-6.3V59.1h6.3v-2.9c0-13.7,9.8-17.3,21.5-17.3h2.4v12.7c-6.1,0-7.1,1.2-7.1,7.5
	h7.1v12.8H760.3z"/>
</svg>
